<?xml version="1.0" standalone="no"?>
<!DOCTYPE svg PUBLIC "-//W3C//DTD SVG 1.1//EN" "http://www.w3.org/Graphics/SVG/1.1/DTD/svg11.dtd"><svg class="icon"
  width="200px" height="200.00px" viewBox="0 0 1024 1024" version="1.1" xmlns="http://www.w3.org/2000/svg">
  <path
    d="M983.144 563.948c0 194.003-157.276 351.277-351.279 351.277S280.536 757.951 280.536 563.948c0-194.052 157.326-351.329 351.329-351.329 194.002 0.001 351.279 157.277 351.279 351.329z"
    fill="#E9EAEB" />
  <path
    d="M750.013 31.842l33.318 88.073-29.717 11.257-33.319-88.071zM857.986 26.489l-11.907 93.426-31.542-3.986 11.907-93.424zM964.276 87.076l-68.412 64.716-21.843-23.092 68.412-64.691zM1023.952 171.908l-88.816 31.301-10.563-29.956 88.816-31.303zM1017.808 293.034l-92.37-18.34 6.192-31.156 92.37 18.314z"
    fill="#2D4978" />
  <path d="M425.667 480.339l405.625-223.696-11.521 454.379-405.58 223.673z" fill="#FFFFFF" />
  <path
    d="M414.191 946.984c-2.207 0-4.416-0.6-6.383-1.775a12.366 12.366 0 0 1-5.906-10.826l11.474-454.354a12.27 12.27 0 0 1 6.361-10.443L825.363 245.89c3.866-2.137 8.545-2.017 12.314 0.241a12.358 12.358 0 0 1 5.905 10.826L832.06 711.333c-0.118 4.371-2.52 8.354-6.361 10.443L420.122 945.449a12.15 12.15 0 0 1-5.931 1.535z m23.573-459.275l-10.753 425.885 380.66-209.94 10.803-425.91-380.71 209.965z"
    fill="#2D4978" />
  <path d="M35.355 243.104L440.934 19.433l390.358 237.21-405.625 223.696z" fill="#FFFFFF" />
  <path
    d="M425.667 492.631c-2.209 0-4.417-0.602-6.385-1.776L28.97 253.62a12.307 12.307 0 0 1-5.903-10.78 12.294 12.294 0 0 1 6.361-10.489L435.004 8.678c3.865-2.161 8.522-2.017 12.315 0.241L837.678 246.13a12.306 12.306 0 0 1 5.905 10.777 12.298 12.298 0 0 1-6.36 10.49L431.595 491.093a12.124 12.124 0 0 1-5.928 1.538zM59.864 243.634l366.09 222.495L806.783 256.14 440.645 33.643 59.864 243.634z"
    fill="#2D4978" />
  <path d="M425.667 480.339l-11.476 454.356L23.834 697.46l11.521-454.356z" fill="#BCBFC5" />
  <path
    d="M414.191 946.984c-2.207 0-4.416-0.6-6.383-1.775L17.449 707.974a12.358 12.358 0 0 1-5.904-10.826l11.522-454.354c0.12-4.395 2.543-8.378 6.409-10.467 3.815-2.089 8.497-1.969 12.265 0.265l390.312 237.235c3.767 2.303 6 6.433 5.904 10.826l-11.474 454.354c-0.12 4.394-2.544 8.377-6.409 10.466a12.208 12.208 0 0 1-5.883 1.511zM36.292 690.665l366.137 222.498 10.78-426.005L47.094 264.636 36.292 690.665z"
    fill="#2D4978" />
  <path
    d="M177.462 328.128l397.559-214.791 110.614 56.075-392.76 213.232-11.187 120.235-43.304-53.528-12.819 18.242-27.267-48.079-28.853 6.409z"
    fill="#9EC7EB" />
  <path
    d="M281.688 515.171a12.301 12.301 0 0 1-9.553-4.561l-33.055-40.856-3.457 4.897c-2.424 3.433-5.904 5.592-10.658 5.208a12.245 12.245 0 0 1-10.082-6.193l-22.805-40.184-19.97 4.441a12.264 12.264 0 0 1-10.731-2.736 12.242 12.242 0 0 1-4.176-10.273l8.017-97.794a12.235 12.235 0 0 1 6.41-9.793l397.561-214.792c3.504-1.896 7.801-1.992 11.401-0.168l110.613 56.074a12.33 12.33 0 0 1 6.72 10.802 12.253 12.253 0 0 1-6.433 10.97l-386.997 210.11-10.562 113.685a12.25 12.25 0 0 1-8.69 10.633c-1.176 0.362-2.376 0.53-3.553 0.53z m-43.304-78.111c3.697 0 7.225 1.68 9.555 4.561l24.316 30.054 8.376-90.16a12.355 12.355 0 0 1 6.386-9.673l372.165-202.046-83.967-42.583-386.039 208.572-6.123 74.535 12.581-2.809c5.256-1.081 10.682 1.249 13.346 5.929l17.691 31.207 1.656-2.354c2.209-3.168 5.786-5.088 9.651-5.233h0.406z"
    fill="#2D4978" /></svg>
