<?xml version="1.0" standalone="no"?>
<!DOCTYPE svg PUBLIC "-//W3C//DTD SVG 1.1//EN" "http://www.w3.org/Graphics/SVG/1.1/DTD/svg11.dtd"><svg class="icon"
  width="200px" height="200.00px" viewBox="0 0 1024 1024" version="1.1" xmlns="http://www.w3.org/2000/svg">
  <path
    d="M898.207 533.094c0 216.163-175.279 391.406-391.418 391.406-216.186 0-391.418-175.243-391.418-391.406 0-216.162 175.232-391.406 391.418-391.406 216.139 0 391.418 175.244 391.418 391.406z"
    fill="#E9EAEB" />
  <path d="M165.263 683.485h683.051v307.582H165.263z" fill="#FFFFFF" />
  <path d="M860.297 1003.049H153.282V671.504h707.015v331.545z m-683.052-23.964h659.088V695.468H177.245v283.617z"
    fill="#2D4978" />
  <path d="M165.31 495.78l683.004 0.023 141.535 191.076-966.061-0.058z" fill="#FFFFFF" />
  <path
    d="M1013.626 698.86L0 698.803l159.272-215.005 695.08 0.023 159.274 215.039z m-966.05-24.022l918.498 0.06-123.797-167.113-670.93-0.023L47.576 674.838z"
    fill="#2D4978" />
  <path d="M412.901 867.213h187.776v123.854H412.901z" fill="#9EC7EB" />
  <path
    d="M600.677 1003.049H412.901a11.973 11.973 0 0 1-11.981-11.981V867.213c0-6.622 5.359-11.981 11.981-11.981h187.776c6.624 0 11.982 5.359 11.982 11.981v123.854a11.974 11.974 0 0 1-11.982 11.982z m-175.794-23.964h163.812v-99.89H424.883v99.89zM288.731 889.233h25.976v25.965h-25.976zM222.832 889.233h25.976v25.965h-25.976z"
    fill="#2D4978" />
  <path
    d="M589.725 297.824h65.854L514.277 473.15l-155.34-155.353h82.093s31.078-193.064-82.093-197.511c-128.804-5.043-188.666 142.037-188.666 142.037S183.611 44.828 327.11 20.419c164.796-28.023 262.615 90.998 262.615 277.405z"
    fill="#9EC7EB" />
  <path
    d="M514.277 485.132a11.96 11.96 0 0 1-8.471-3.51L350.465 326.269a12.01 12.01 0 0 1-2.598-13.059 11.97 11.97 0 0 1 11.069-7.395H430.5c3.159-28.515 8.775-110.211-24.455-150.754-11.911-14.556-27.474-22.009-47.576-22.805l-5.991-0.117c-114.668 0-170.552 133.367-171.114 134.712-2.223 5.418-8.073 8.448-13.76 7.149a11.995 11.995 0 0 1-9.291-12.415c0.562-9.267 15.656-227.278 166.784-252.984 16.568-2.809 32.88-4.236 48.442-4.236 137.603 0 224.236 107.508 228.026 281.477h54.013c4.61 0 8.822 2.644 10.812 6.81a12.028 12.028 0 0 1-1.475 12.695L523.614 480.674a12.087 12.087 0 0 1-8.704 4.447 12.13 12.13 0 0 1-0.633 0.011zM387.861 329.779l125.457 125.469 117.22-145.442h-40.813c-6.622 0-11.981-5.359-11.981-11.981 0-166.235-78.232-269.495-204.204-269.495-14.229 0-29.182 1.311-44.417 3.896C244.409 46.641 208.018 136.258 192.76 199.49c31.616-43.282 86.938-94.263 166.645-91.173 26.982 1.053 48.91 11.689 65.197 31.592 47.249 57.721 29.065 174.835 28.247 179.796-0.913 5.804-5.944 10.075-11.818 10.075h-53.17zM753.443 285.983l32.529 85.861-28.97 10.975-32.483-85.861zM858.753 280.776l-11.608 91.08-30.75-3.908 11.608-91.069zM962.329 339.842l-66.696 63.079-21.295-22.501 66.741-63.079zM1020.552 422.532l-86.586 30.516-10.297-29.194 86.539-30.539zM1014.562 540.606l-90.05-17.856 6.036-30.375 90.051 17.844z"
    fill="#2D4978" /></svg>
