<?xml version="1.0" standalone="no"?><!DOCTYPE svg PUBLIC "-//W3C//DTD SVG 1.1//EN" "http://www.w3.org/Graphics/SVG/1.1/DTD/svg11.dtd"><svg class="icon" width="200px" height="200.00px" viewBox="0 0 1024 1024" version="1.1" xmlns="http://www.w3.org/2000/svg"><path d="M1019.013 577.776c0 181.946-147.514 329.448-329.46 329.448-181.946 0-329.459-147.502-329.459-329.448 0-181.934 147.514-329.436 329.459-329.436 181.946 0 329.46 147.502 329.46 329.436z" fill="#E9EAEB" /><path d="M12.276 137.345h695.692v543.25H12.276z" fill="#FFFFFF" /><path d="M720.245 692.872H0V125.067h720.245v567.805zM24.553 668.318h671.138V149.622H24.553v518.696z" fill="#2D4978" /><path d="M263.94 137.345h192.353v92.065H263.94z" fill="#9EC7EB" /><path d="M456.293 241.686H263.94c-6.786 0-12.278-5.49-12.278-12.276v-92.065c0-6.786 5.492-12.277 12.278-12.277h192.353c6.786 0 12.277 5.492 12.277 12.277v92.065c0 6.785-5.491 12.276-12.277 12.276z m-180.077-24.554h167.799v-67.511H276.216v67.511zM93.072 577.788h26.616v26.604H93.072zM169.801 577.788h26.616v26.604h-26.616zM237.324 577.788h26.616v26.604h-26.616z" fill="#2D4978" /><path d="M809.876 577.776c0 103.406-83.828 187.221-187.223 187.221s-187.221-83.814-187.221-187.221c0-103.394 83.826-187.21 187.221-187.21s187.223 83.816 187.223 187.21z" fill="#FFFFFF" /><path d="M622.653 777.274c-110.012 0-199.498-89.498-199.498-199.498S512.642 378.29 622.653 378.29c110.013 0 199.498 89.486 199.498 199.486s-89.485 199.498-199.498 199.498z m0-374.431c-96.464 0-174.945 78.469-174.945 174.933s78.481 174.945 174.945 174.945 174.945-78.481 174.945-174.945-78.481-174.933-174.945-174.933z" fill="#2D4978" /><path d="M931.638 848.886c-14.675 16.425-39.9 17.816-56.35 3.142l-96.058-85.914c-16.447-14.699-17.84-39.924-3.165-56.35 14.676-16.425 39.949-17.826 56.35-3.141l96.104 85.915c16.402 14.697 17.84 39.924 3.119 56.348z" fill="#9EC7EB" /><path d="M901.903 874.446c-12.853 0-25.2-4.7-34.792-13.259l-96.057-85.927c-21.461-19.159-23.307-52.213-4.148-73.673 18.439-20.634 53.04-22.587 73.709-4.112l96.08 85.914c10.384 9.314 16.546 22.071 17.313 35.979 0.767 13.932-3.933 27.335-13.237 37.717-9.853 11.031-24.025 17.361-38.868 17.361z m-96.08-165.701c-7.865 0-15.37 3.345-20.597 9.196-10.168 11.364-9.185 28.87 2.182 39.013l96.057 85.913c10.934 9.735 29.254 8.752 39.012-2.157 4.94-5.516 7.434-12.589 7.026-19.951-0.432-7.384-3.669-14.146-9.185-19.085l-96.08-85.902a27.607 27.607 0 0 0-18.415-7.027zM528.516 507.184h25.607V640.18h-25.607zM575.561 507.184h25.608V640.18h-25.608zM642.076 507.184h25.607V640.18h-25.607zM691.184 507.184h25.608V640.18h-25.608z" fill="#2D4978" /></svg>