<?xml version="1.0" standalone="no"?><!DOCTYPE svg PUBLIC "-//W3C//DTD SVG 1.1//EN" "http://www.w3.org/Graphics/SVG/1.1/DTD/svg11.dtd"><svg class="icon" width="200px" height="200.00px" viewBox="0 0 1024 1024" version="1.1" xmlns="http://www.w3.org/2000/svg"><path d="M866.194 562.764c0 219.023-177.6 396.576-396.6 396.576-219.046 0-396.598-177.553-396.598-396.576 0-219.024 177.552-396.587 396.598-396.587 219.001 0 396.6 177.562 396.6 396.587z" fill="#E9EAEB" /><path d="M241.681 48.14h604.17v496.959h-604.17z" fill="#FFFFFF" /><path d="M857.991 557.238H229.54V36h628.451v521.238z m-604.171-24.28h579.89V60.28H253.82v472.678z" fill="#2D4978" /><path d="M266.293 916.705L19.49 667.449l105.719-104.685 246.838 249.232z" fill="#9EC7EB" /><path d="M266.293 928.846c-3.13 0-6.26-1.211-8.632-3.605L10.86 675.986c-4.718-4.754-4.672-12.448 0.082-17.167l105.73-104.687c4.767-4.708 12.45-4.684 17.167 0.083l246.837 249.243a12.138 12.138 0 0 1 3.509 8.606 12.164 12.164 0 0 1-3.604 8.561l-105.753 104.71a12.079 12.079 0 0 1-8.535 3.511zM36.659 667.533l229.728 232.006 88.492-87.638-229.765-231.97-88.455 87.602z" fill="#2D4978" /><path d="M448.634 48.14h190.263v91.041H448.634z" fill="#9EC7EB" /><path d="M638.896 151.321H448.634c-6.71 0-12.139-5.43-12.139-12.141V48.14c0-6.71 5.429-12.14 12.139-12.14h190.263c6.71 0 12.139 5.43 12.139 12.14v91.041c-0.001 6.71-5.43 12.14-12.14 12.14zM460.774 127.04h165.981V60.28H460.774v66.76zM300.627 367.831h26.32v26.309h-26.32zM376.504 367.831h26.318v26.309h-26.318zM443.275 367.831h26.32v26.309h-26.32z" fill="#2D4978" /><path d="M169.313 583.761l178.051 176.021 34.405-30.339 329.804 4.043 143.669-121.403 147.699-208.401s-76.873-70.826-202.332 93.068l-68.788 20.238-198.299-6.07-62.717-56.86H335.223c0 0.001-91.054 14.368-165.91 129.703z" fill="#FFFFFF" /><path d="M346.888 776.381l-193.13-190.938 5.383-8.3c76.896-118.498 170.248-134.456 174.184-135.072l142.174-0.153 62.861 57.002 191.897 5.868 63.143-18.566c56.555-72.936 111.326-109.902 162.781-109.902 34.572 0 54.158 17.677 54.988 18.436l7.848 7.231-155.954 219.367-147.104 124.332-329.662-4.043-39.409 34.738zM184.962 582.172l162.875 161.012 29.402-25.939 329.945 4.043 139.047-117.479 139.471-196.805c-21.578-10.409-81.733-25.324-175.443 97.122l-2.419 3.154-74.454 21.909-204.7-6.271-62.576-56.719H335.223c0.923 0.011-80.763 14.616-150.261 115.973z" fill="#2D4978" /><path d="M525.437 624.224h208.4s53.611-10.113 44.506-63.985c-8.939-53.114-252.906-46.285-252.906-46.285" fill="#FFFFFF" /><path d="M525.437 636.364v-24.281h208.4c1.968-0.627 39.384-9.283 32.531-49.817-4.291-25.561-127.686-39.457-240.601-36.173l-0.664-24.28c59.754-1.671 255.279-2.538 265.213 56.41 8.774 51.893-31.63 73.671-54.227 77.928l-210.652 0.213z" fill="#2D4978" /></svg>