<?xml version="1.0" standalone="no"?><!DOCTYPE svg PUBLIC "-//W3C//DTD SVG 1.1//EN" "http://www.w3.org/Graphics/SVG/1.1/DTD/svg11.dtd"><svg class="icon" width="200px" height="200.00px" viewBox="0 0 1024 1024" version="1.1" xmlns="http://www.w3.org/2000/svg"><path d="M912.433 965.119l50.807-87.834 38.732 18.499V48.73l-200.477 65.868z" fill="#FFFFFF" /><path d="M912.433 978.986c-0.896 0-1.815-0.082-2.709-0.271a13.87 13.87 0 0 1-11.052-11.809L787.736 116.385c-0.868-6.595 3.115-12.878 9.425-14.963l200.477-65.869a13.748 13.748 0 0 1 12.459 1.949 13.863 13.863 0 0 1 5.741 11.228v847.054c0 4.766-2.437 9.195-6.472 11.728-4.037 2.546-9.074 2.857-13.382 0.784l-27.164-12.973-44.39 76.744a13.891 13.891 0 0 1-11.997 6.919z m-95.691-854.8L920.908 922.8l30.334-52.46c3.602-6.244 11.484-8.669 17.984-5.566l18.877 9.019V67.878l-171.361 56.308z" fill="#2D4978" /><path d="M250.82 160.83v804.289h670.279V160.83h-0.759z" fill="#FFFFFF" /><path d="M921.099 978.986H250.82c-7.664 0-13.866-6.202-13.866-13.867V160.83c0-7.663 6.202-13.867 13.866-13.867h669.52c7.666 0 14.625 6.204 14.625 13.867v804.289c0 7.665-6.203 13.867-13.866 13.867z m-656.411-27.733h642.543V174.698H264.688v776.555z" fill="#2D4978" /><path d="M876.191 104.197L995.036 48.73H304.014l17.01 64.135-70.204 47.965h669.52z" fill="#FFFFFF" /><path d="M920.34 174.698H250.82a13.848 13.848 0 0 1-13.244-9.777c-1.786-5.81 0.407-12.107 5.417-15.533l62.104-42.442-14.489-54.668a13.809 13.809 0 0 1 2.411-11.999 13.878 13.878 0 0 1 10.995-5.417h691.022a13.879 13.879 0 0 1 13.543 10.861 13.882 13.882 0 0 1-7.664 15.574l-103.082 48.102 33.448 42.901c3.249 4.184 3.846 9.858 1.517 14.611a13.855 13.855 0 0 1-12.458 7.787z m-624.641-27.735h596.255l-26.704-34.234a13.896 13.896 0 0 1-2.546-11.767 13.913 13.913 0 0 1 7.61-9.331l62.213-29.034H322.024l12.405 46.707c1.491 5.688-0.73 11.7-5.579 15.004l-33.151 22.655zM589.426 541.011c-131.71 0-135.177-107.864-135.203-108.947V310.47c0-7.664 6.202-13.867 13.866-13.867 7.666 0 13.868 6.204 13.868 13.867v121.337c0.082 3.019 3.521 81.468 107.469 81.468 113.104 0 114.402-90.609 114.402-94.469V310.47c0-7.664 6.204-13.867 13.867-13.867 7.666 0 13.868 6.204 13.868 13.867v108.337c0 1.218-1.625 122.204-142.137 122.204z" fill="#2D4978" /><path d="M20.877 418.807l199.34-182.872h97.068l58.935 60.668v90.136L171.682 580.878z" fill="#9EC7EB" /><path d="M171.682 594.745h-0.434a13.935 13.935 0 0 1-9.723-4.415L10.72 428.258a13.921 13.921 0 0 1-3.71-9.993c0.164-3.698 1.761-7.179 4.496-9.682l199.34-182.872a13.852 13.852 0 0 1 9.372-3.644h97.067c3.739 0 7.34 1.518 9.94 4.198l58.934 60.668a13.897 13.897 0 0 1 3.929 9.669v90.137c0 3.806-1.572 7.435-4.334 10.062L181.215 590.939a13.8 13.8 0 0 1-9.533 3.806zM40.541 419.579l131.764 141.595 190.048-180.393v-78.559l-50.917-52.42h-85.83L40.541 419.579z" fill="#2D4978" /><path d="M309.703 320.871c0 9.236-7.476 16.711-16.684 16.711-9.264 0-16.738-7.476-16.738-16.711 0-9.236 7.474-16.71 16.738-16.71 9.208 0 16.684 7.474 16.684 16.71z" fill="#9EC7EB" /><path d="M293.019 351.448c-16.874 0-30.605-13.717-30.605-30.578s13.732-30.578 30.605-30.578c16.846 0 30.55 13.717 30.55 30.578s-13.705 30.578-30.55 30.578zM468.089 871.517h57.202v32.365h-57.202zM564.293 871.517h57.2v32.365h-57.2zM655.565 871.517h57.201v32.365h-57.201z" fill="#2D4978" /><path d="M502.757 310.47c0 19.149-15.545 34.669-34.668 34.669-19.175 0-34.667-15.52-34.667-34.669 0-19.148 15.492-34.668 34.667-34.668 19.122 0 34.668 15.519 34.668 34.668z" fill="#FFFFFF" /><path d="M468.089 359.004c-26.759 0-48.534-21.776-48.534-48.535 0-26.758 21.775-48.533 48.534-48.533 26.761 0 48.536 21.775 48.536 48.533 0 26.76-21.775 48.535-48.536 48.535z m0-69.335c-11.455 0-20.801 9.331-20.801 20.8 0 11.47 9.346 20.801 20.801 20.801 11.457 0 20.801-9.331 20.801-20.801 0-11.469-9.345-20.8-20.801-20.8z" fill="#2D4978" /><path d="M752.363 310.47c0 19.149-15.545 34.669-34.668 34.669-19.174 0-34.667-15.52-34.667-34.669 0-19.148 15.493-34.668 34.667-34.668 19.123 0 34.668 15.519 34.668 34.668z" fill="#FFFFFF" /><path d="M717.695 359.004c-26.758 0-48.533-21.776-48.533-48.535 0-26.758 21.775-48.533 48.533-48.533 26.76 0 48.535 21.775 48.535 48.533 0 26.76-21.775 48.535-48.535 48.535z m0-69.335c-11.455 0-20.8 9.331-20.8 20.8 0 11.47 9.345 20.801 20.8 20.801 11.457 0 20.802-9.331 20.802-20.801 0-11.469-9.345-20.8-20.802-20.8z" fill="#2D4978" /></svg>