<?xml version="1.0" standalone="no"?>
<!DOCTYPE svg PUBLIC "-//W3C//DTD SVG 1.1//EN" "http://www.w3.org/Graphics/SVG/1.1/DTD/svg11.dtd"><svg class="icon"
  width="200px" height="199.03px" viewBox="0 0 1029 1024" version="1.1" xmlns="http://www.w3.org/2000/svg">
  <path d="M473.869 664.511h83.835v206.73h-83.835z" fill="#9EC7EB" />
  <path
    d="M557.704 884.915h-83.835c-7.558 0-13.674-6.116-13.674-13.674v-206.73c0-7.558 6.116-13.674 13.674-13.674h83.835c7.558 0 13.674 6.116 13.674 13.674v206.73c0 7.558-6.116 13.674-13.674 13.674z m-70.161-27.35h56.486v-179.38h-56.486v179.38z"
    fill="#2D4978" />
  <path
    d="M1015.766 663.216c0 28.604-24.064 51.826-53.709 51.826H69.542c-29.699 0-53.735-23.223-53.735-51.826V163.49c0-28.618 24.037-51.84 53.735-51.84h892.515c29.645 0 53.709 23.222 53.709 51.84v499.726z"
    fill="#FFFFFF" />
  <path
    d="M962.057 728.716H69.542c-37.177 0-67.41-29.378-67.41-65.5V163.49c0-36.123 30.233-65.514 67.41-65.514h892.515c37.149 0 67.383 29.392 67.383 65.514v499.726c-0.001 36.122-30.234 65.5-67.383 65.5zM69.542 125.325c-22.087 0-40.061 17.12-40.061 38.166v499.726c0 21.032 17.974 38.151 40.061 38.151h892.515c22.087 0 40.034-17.119 40.034-38.151V163.49c0-21.045-17.947-38.166-40.034-38.166H69.542zM812.12 884.915H219.452c-7.558 0-13.674-6.116-13.674-13.674 0-7.559 6.116-13.676 13.674-13.676H812.12c7.558 0 13.674 6.117 13.674 13.676 0 7.558-6.116 13.674-13.674 13.674z"
    fill="#2D4978" />
  <path
    d="M486.127 578.365c0 24.932-20.244 45.149-45.136 45.149-24.998 0-45.243-20.218-45.243-45.149 0-24.971 20.245-45.188 45.243-45.188 24.892 0 45.136 20.218 45.136 45.188z"
    fill="#9EC7EB" />
  <path
    d="M440.992 637.189c-32.477 0-58.917-26.388-58.917-58.824 0-32.463 26.44-58.863 58.917-58.863 32.423 0 58.81 26.4 58.81 58.863 0 32.437-26.387 58.824-58.81 58.824z m0-90.338c-17.413 0-31.568 14.142-31.568 31.515 0 17.36 14.155 31.476 31.568 31.476 17.36 0 31.461-14.115 31.461-31.476 0-17.374-14.101-31.515-31.461-31.515z"
    fill="#2D4978" />
  <path
    d="M688.304 578.365c0 24.932-20.244 45.149-45.189 45.149-24.972 0-45.216-20.218-45.216-45.149 0-24.971 20.244-45.188 45.216-45.188 24.945 0 45.189 20.218 45.189 45.188z"
    fill="#9EC7EB" />
  <path
    d="M643.114 637.189c-32.476 0-58.89-26.388-58.89-58.824 0-32.463 26.414-58.863 58.89-58.863 32.45 0 58.864 26.4 58.864 58.863 0.001 32.437-26.414 58.824-58.864 58.824z m0-90.338c-17.387 0-31.541 14.142-31.541 31.515 0 17.36 14.154 31.476 31.541 31.476s31.516-14.115 31.516-31.476c0-17.374-14.129-31.515-31.516-31.515z"
    fill="#2D4978" />
  <path d="M342.2 295.426h346.104v177.658H397.352z" fill="#9EC7EB" />
  <path
    d="M688.304 486.759H397.352c-5.982 0-11.271-3.899-13.06-9.615L329.14 299.485a13.654 13.654 0 0 1 2.057-12.165 13.638 13.638 0 0 1 11.004-5.569h346.104c7.559 0 13.675 6.116 13.675 13.674v177.659c-0.001 7.559-6.118 13.675-13.676 13.675zM407.42 459.41h267.21V309.1H360.762l46.658 150.31z"
    fill="#2D4978" />
  <path
    d="M718.938 538.813H421.816c-5.769 0-10.95-3.633-12.873-9.081L301.925 229.485h-73.072c-7.559 0-13.674-6.116-13.674-13.674s6.116-13.674 13.674-13.674h82.713c5.796 0 10.95 3.632 12.873 9.081l107.018 300.247h287.48c7.558 0 13.674 6.116 13.674 13.674 0 7.556-6.116 13.674-13.673 13.674z"
    fill="#2D4978" /></svg>
